HIERARCHY
ROOT hips
{
	OFFSET 0.000000 104.274902 0.000000
	CHANNELS 6 Xposition Yposition Zposition Xrotation Yrotation Zrotation
	JOINT spine
	{
		OFFSET 0.000000 10.181549 0.131524
		CHANNELS 6 Xposition Yposition Zposition Xrotation Yrotation Zrotation
		JOINT chest
		{
			OFFSET 0.000000 9.893990 -1.470706
			CHANNELS 3 Xrotation Yrotation Zrotation
			JOINT upperChest
			{
				OFFSET 0.000000 9.220787 -1.370637
				CHANNELS 3 Xrotation Yrotation Zrotation
				JOINT neck
				{
					OFFSET 0.000000 16.740372 -2.049022
					CHANNELS 6 Xposition Yposition Zposition Xrotation Yrotation Zrotation
					JOINT head
					{
						OFFSET 0.000000 9.617859 1.684976
						CHANNELS 6 Xposition Yposition Zposition Xrotation Yrotation Zrotation
						JOINT headEnd
						{
							OFFSET 0.000000 22.037384 7.501072
							CHANNELS 6 Xposition Yposition Zposition Xrotation Yrotation Zrotation
							End Site
							{
								OFFSET 0.000000 23.106567 -2.828246
							}
						}
					}
				}
				JOINT rightShoulder
				{
					OFFSET -4.570000 11.014877 -2.160840
					CHANNELS 6 Xposition Yposition Zposition Xrotation Yrotation Zrotation
					JOINT rightUpperArm
					{
						OFFSET -10.592867 -0.524796 -2.232105
						CHANNELS 3 Xrotation Yrotation Zrotation
						JOINT rightLowerArm
						{
							OFFSET -27.841497 0.000000 -0.000002
							CHANNELS 3 Xrotation Yrotation Zrotation
							JOINT rightHand
							{
								OFFSET -28.328812 0.000000 -0.000001
								CHANNELS 3 Xrotation Yrotation Zrotation
								JOINT rightThumbProximal
								{
									OFFSET -2.464798 -1.573990 2.681911
									CHANNELS 6 Xposition Yposition Zposition Xrotation Yrotation Zrotation
									JOINT rightThumbIntermediate
									{
										OFFSET -3.244781 -1.873383 1.873376
										CHANNELS 3 Xrotation Yrotation Zrotation
										JOINT rightThumbDistal
										{
											OFFSET -2.646263 -1.527817 1.527818
											CHANNELS 6 Xposition Yposition Zposition Xrotation Yrotation Zrotation
											JOINT rightHandThumb4
											{
												OFFSET -1.994591 -1.151581 1.151575
												CHANNELS 6 Xposition Yposition Zposition Xrotation Yrotation Zrotation
												End Site
												{
													OFFSET -1.860176 -1.142715 1.365483
												}
											}
										}
									}
								}
								JOINT rightIndexProximal
								{
									OFFSET -9.108299 -0.517883 2.259803
									CHANNELS 6 Xposition Yposition Zposition Xrotation Yrotation Zrotation
									JOINT rightIndexIntermediate
									{
										OFFSET -3.699997 0.000000 0.000000
										CHANNELS 3 Xrotation Yrotation Zrotation
										JOINT rightIndexDistal
										{
											OFFSET -2.850006 0.000000 0.000000
											CHANNELS 3 Xrotation Yrotation Zrotation
											JOINT rightHandIndex4
											{
												OFFSET -2.772194 0.000000 0.000000
												CHANNELS 3 Xrotation Yrotation Zrotation
												End Site
												{
													OFFSET -2.772202 0.000000 -0.000484
												}
											}
										}
									}
								}
								JOINT rightMiddleProximal
								{
									OFFSET -9.532501 0.000000 -0.000000
									CHANNELS 6 Xposition Yposition Zposition Xrotation Yrotation Zrotation
									JOINT rightMiddleIntermediate
									{
										OFFSET -3.699997 0.000000 0.000000
										CHANNELS 3 Xrotation Yrotation Zrotation
										JOINT rightMiddleDistal
										{
											OFFSET -2.949997 0.000000 0.000000
											CHANNELS 3 Xrotation Yrotation Zrotation
											JOINT rightHandMiddle4
											{
												OFFSET -2.946594 0.000000 0.000000
												CHANNELS 3 Xrotation Yrotation Zrotation
												End Site
												{
													OFFSET -2.946602 0.000000 -0.000982
												}
											}
										}
									}
								}
								JOINT rightRingProximal
								{
									OFFSET -9.103600 -0.043106 -1.865100
									CHANNELS 6 Xposition Yposition Zposition Xrotation Yrotation Zrotation
									JOINT rightRingIntermediate
									{
										OFFSET -3.379303 0.000000 0.000000
										CHANNELS 3 Xrotation Yrotation Zrotation
										JOINT rightRingDistal
										{
											OFFSET -2.889694 0.000000 0.000000
											CHANNELS 3 Xrotation Yrotation Zrotation
											JOINT rightHandRing4
											{
												OFFSET -2.638802 0.000000 0.000000
												CHANNELS 3 Xrotation Yrotation Zrotation
												End Site
												{
													OFFSET -2.638802 0.000000 0.004218
												}
											}
										}
									}
								}
								JOINT rightLittleProximal
								{
									OFFSET -8.076698 -0.486725 -3.806299
									CHANNELS 6 Xposition Yposition Zposition Xrotation Yrotation Zrotation
									JOINT rightLittleIntermediate
									{
										OFFSET -3.600006 0.000000 0.000000
										CHANNELS 3 Xrotation Yrotation Zrotation
										JOINT rightLittleDistal
										{
											OFFSET -2.099998 0.000000 0.000000
											CHANNELS 3 Xrotation Yrotation Zrotation
											JOINT rightHandPinky4
											{
												OFFSET -2.115791 0.000000 0.000000
												CHANNELS 3 Xrotation Yrotation Zrotation
												End Site
												{
													OFFSET -2.115799 0.000000 0.000174
												}
											}
										}
									}
								}
							}
						}
					}
				}
				JOINT leftShoulder
				{
					OFFSET 4.570400 11.014679 -2.160816
					CHANNELS 6 Xposition Yposition Zposition Xrotation Yrotation Zrotation
					JOINT leftUpperArm
					{
						OFFSET 10.592373 -0.524597 -2.232116
						CHANNELS 3 Xrotation Yrotation Zrotation
						JOINT leftLowerArm
						{
							OFFSET 27.841488 0.000000 0.000001
							CHANNELS 3 Xrotation Yrotation Zrotation
							JOINT leftHand
							{
								OFFSET 28.328808 0.000000 -0.000000
								CHANNELS 3 Xrotation Yrotation Zrotation
								JOINT leftThumbProximal
								{
									OFFSET 2.466103 -1.576202 2.681698
									CHANNELS 6 Xposition Yposition Zposition Xrotation Yrotation Zrotation
									JOINT leftThumbIntermediate
									{
										OFFSET 3.243317 -1.872528 1.872530
										CHANNELS 3 Xrotation Yrotation Zrotation
										JOINT leftThumbDistal
										{
											OFFSET 2.647881 -1.528763 1.528754
											CHANNELS 6 Xposition Yposition Zposition Xrotation Yrotation Zrotation
											JOINT leftHandThumb4
											{
												OFFSET 1.998924 -1.154083 1.154080
												CHANNELS 6 Xposition Yposition Zposition Xrotation Yrotation Zrotation
												End Site
												{
													OFFSET 1.884041 -1.149155 1.337651
												}
											}
										}
									}
								}
								JOINT leftIndexProximal
								{
									OFFSET 9.109299 -0.518005 2.259900
									CHANNELS 6 Xposition Yposition Zposition Xrotation Yrotation Zrotation
									JOINT leftIndexIntermediate
									{
										OFFSET 3.699997 0.000000 0.000000
										CHANNELS 3 Xrotation Yrotation Zrotation
										JOINT leftIndexDistal
										{
											OFFSET 2.850006 0.000000 0.000000
											CHANNELS 3 Xrotation Yrotation Zrotation
											JOINT leftHandIndex4
											{
												OFFSET 2.774895 0.000000 0.000000
												CHANNELS 3 Xrotation Yrotation Zrotation
												End Site
												{
													OFFSET 2.774902 0.000000 -0.000072
												}
											}
										}
									}
								}
								JOINT leftMiddleProximal
								{
									OFFSET 9.533401 0.000000 0.000000
									CHANNELS 6 Xposition Yposition Zposition Xrotation Yrotation Zrotation
									JOINT leftMiddleIntermediate
									{
										OFFSET 3.699997 0.000000 0.000000
										CHANNELS 3 Xrotation Yrotation Zrotation
										JOINT leftMiddleDistal
										{
											OFFSET 2.949997 0.000000 0.000000
											CHANNELS 3 Xrotation Yrotation Zrotation
											JOINT leftHandMiddle4
											{
												OFFSET 2.952896 0.000000 0.000000
												CHANNELS 3 Xrotation Yrotation Zrotation
												End Site
												{
													OFFSET 2.952904 0.000000 0.000165
												}
											}
										}
									}
								}
								JOINT leftRingProximal
								{
									OFFSET 9.104500 -0.042999 -1.865101
									CHANNELS 6 Xposition Yposition Zposition Xrotation Yrotation Zrotation
									JOINT leftRingIntermediate
									{
										OFFSET 3.149994 0.000000 0.000000
										CHANNELS 3 Xrotation Yrotation Zrotation
										JOINT leftRingDistal
										{
											OFFSET 2.950005 0.000000 0.000000
											CHANNELS 3 Xrotation Yrotation Zrotation
											JOINT leftHandRing4
											{
												OFFSET 2.644302 0.000000 0.000000
												CHANNELS 3 Xrotation Yrotation Zrotation
												End Site
												{
													OFFSET 2.644302 0.000000 0.000083
												}
											}
										}
									}
								}
								JOINT leftLittleProximal
								{
									OFFSET 8.077805 -0.486893 -3.806302
									CHANNELS 6 Xposition Yposition Zposition Xrotation Yrotation Zrotation
									JOINT leftLittleIntermediate
									{
										OFFSET 3.600006 0.000000 0.000000
										CHANNELS 3 Xrotation Yrotation Zrotation
										JOINT leftLittleDistal
										{
											OFFSET 2.099998 0.000000 0.000000
											CHANNELS 3 Xrotation Yrotation Zrotation
											JOINT leftHandPinky4
											{
												OFFSET 2.125496 0.000000 0.000000
												CHANNELS 3 Xrotation Yrotation Zrotation
												End Site
												{
													OFFSET 2.125504 0.000000 -0.001254
												}
											}
										}
									}
								}
							}
						}
					}
				}
			}
		}
	}
	JOINT rightUpperLeg
	{
		OFFSET -8.207800 -6.751701 -1.599544
		CHANNELS 6 Xposition Yposition Zposition Xrotation Yrotation Zrotation
		JOINT rightLowerLeg
		{
			OFFSET 0.000004 -44.370152 0.345934
			CHANNELS 3 Xrotation Yrotation Zrotation
			JOINT rightFoot
			{
				OFFSET 0.000004 -44.423664 -3.043535
				CHANNELS 3 Xrotation Yrotation Zrotation
				JOINT rightToes
				{
					OFFSET 0.000001 -8.728691 10.710592
					CHANNELS 3 Xrotation Yrotation Zrotation
					JOINT rightToesEnd
					{
						OFFSET 0.000000 -0.000665 9.278101
						CHANNELS 3 Xrotation Yrotation Zrotation
						End Site
						{
							OFFSET 0.000000 -0.000665 9.278103
						}
					}
				}
			}
		}
	}
	JOINT leftUpperLeg
	{
		OFFSET 8.207800 -6.751701 -1.599544
		CHANNELS 6 Xposition Yposition Zposition Xrotation Yrotation Zrotation
		JOINT leftLowerLeg
		{
			OFFSET 0.000004 -44.370037 0.346940
			CHANNELS 3 Xrotation Yrotation Zrotation
			JOINT leftFoot
			{
				OFFSET 0.000004 -44.423611 -3.044388
				CHANNELS 3 Xrotation Yrotation Zrotation
				JOINT leftToes
				{
					OFFSET 0.000001 -8.728690 10.710592
					CHANNELS 3 Xrotation Yrotation Zrotation
					JOINT leftToesEnd
					{
						OFFSET 0.000000 -0.000680 9.278101
						CHANNELS 3 Xrotation Yrotation Zrotation
						End Site
						{
							OFFSET 0.000000 -0.000680 9.278101
						}
					}
				}
			}
		}
	}
}
MOTION
Frames: 4
Frame Time: 0.033333
0.770636 97.856705 2.480941 -1.066281 -3.163240 7.878204 -0.000000 10.181546 0.131524 -1.394774 0.589488 -0.278404 6.496312 -0.160543 -3.781749 6.504168 -0.147038 -3.779293 -0.000000 16.740374 -2.049016 -1.722806 3.064333 -1.216009 -0.000003 9.617861 1.684989 -25.287930 19.711706 -11.277413 0.000007 22.037354 7.501073 0.000001 0.000000 -0.000000 -4.570002 11.014876 -2.160840 0.912641 9.410344 6.885772 3.491393 22.445047 71.781340 -0.000002 7.179544 0.000021 38.346994 4.903483 -1.707370 -2.464811 -1.574015 2.681914 -4.077517 -16.174544 -15.131709 5.287494 -15.850487 -0.724044 -2.646268 -1.527807 1.527821 -1.273760 0.137312 -2.094870 -1.994590 -1.151584 1.151577 -0.000001 -0.000005 -0.000000 -9.108299 -0.517862 2.259805 0.000434 -0.077664 0.637289 0.101288 -1.184906 9.771543 0.115312 -1.263608 10.427985 -0.000001 -0.000001 -0.000001 -9.532504 0.000003 0.000001 0.079686 -1.051854 8.665062 0.177226 -1.562908 12.937400 0.200911 -1.662667 13.779651 -0.000002 0.000000 0.000004 -9.103610 -0.043121 -1.865100 0.343082 -2.161154 18.038468 0.305695 -2.042897 17.019426 0.329221 -2.118201 17.667797 -0.000001 -0.000000 0.000003 -8.076683 -0.486744 -3.806297 0.731942 -3.110238 26.479101 0.398620 -2.324680 19.457846 0.451734 -2.469745 20.727657 0.000001 -0.000001 0.000001 4.570403 11.014688 -2.160814 0.636310 -5.343850 -7.290898 4.781219 -12.078943 -62.755621 0.000011 -15.083359 -0.000000 32.464166 5.550360 5.047286 2.466083 -1.576215 2.681702 -3.717798 17.628218 14.011622 4.535375 15.200323 1.290785 2.647881 -1.528733 1.528751 -0.579457 1.575007 2.538721 1.998913 -1.154107 1.154071 -0.000001 0.000006 0.000001 9.109299 -0.518015 2.259904 0.091387 1.120381 -9.326083 0.010528 0.381591 -3.163635 0.010527 0.381599 -3.163639 -0.000001 -0.000001 0.000000 9.533389 0.000005 0.000003 0.147424 1.420143 -11.854476 0.112429 1.241699 -10.346730 0.103220 1.190369 -9.914563 -0.000001 0.000000 -0.000002 9.104490 -0.042996 -1.865096 0.216518 1.716555 -14.378544 0.351906 2.177193 -18.362171 0.349690 2.170488 -18.303529 -0.000001 -0.000002 0.000001 8.077816 -0.486887 -3.806296 1.473684 5.900863 -16.553657 0.638707 -1.173739 -25.156540 0.631724 2.885992 -24.691387 -0.000004 0.000001 -0.000002 -8.207802 -6.751731 -1.599541 -21.105539 5.383843 -6.217945 44.889639 -10.181030 -9.976333 -18.419239 -4.275295 -1.046354 -5.962759 -0.000001 -0.000006 -0.000000 -0.000000 0.000001 8.207800 -6.751713 -1.599544 -15.565808 6.177827 -9.366815 34.947100 8.575830 1.560262 -17.872833 0.203209 -1.289921 -0.154119 -0.000001 -0.000000 0.000000 0.000001 0.000000 
0.739630 97.952339 2.455035 -1.481249 -0.487357 7.445543 0.000000 10.181540 0.131525 -1.175932 -0.416932 -0.452512 6.461395 -0.271900 -3.451995 6.459700 -0.264929 -3.459269 -0.000000 16.740364 -2.049023 -1.129731 2.839297 -1.171015 -0.000003 9.617846 1.684984 -24.459397 18.933228 -11.976404 0.000001 22.037369 7.501076 0.000002 0.000001 -0.000000 -4.570001 11.014879 -2.160845 0.892195 9.563527 7.084024 1.480241 21.146674 70.675150 -0.000022 7.423657 0.000010 31.314433 3.656256 -2.617885 -2.464803 -1.573996 2.681909 -4.077522 -16.174547 -15.131709 5.287490 -15.850485 -0.724038 -2.646266 -1.527790 1.527821 -1.273761 0.137299 -2.094867 -1.994586 -1.151581 1.151584 0.000002 -0.000004 -0.000002 -9.108286 -0.517878 2.259801 0.003600 0.224398 -1.841626 0.086967 -1.098541 9.052886 0.107524 -1.220554 10.068639 0.000004 0.000000 0.000000 -9.532497 -0.000001 -0.000001 0.040252 -0.748668 6.155542 0.154491 -1.460474 12.075990 0.190424 -1.619344 13.413528 0.000001 -0.000000 -0.000003 -9.103595 -0.043109 -1.865102 0.249985 -1.851224 15.379902 0.274620 -1.938520 16.124905 0.315419 -2.074355 17.289966 0.000004 -0.000003 0.000004 -8.076692 -0.486715 -3.806300 0.583542 -2.792996 23.598030 0.367434 -2.234504 18.673693 0.434988 -2.425083 20.335469 0.000001 -0.000001 0.000001 4.570402 11.014683 -2.160817 0.632192 -5.444000 -7.412079 2.768687 -13.435484 -62.377809 -0.000011 -13.412940 -0.000003 34.022965 4.832696 7.163118 2.466097 -1.576212 2.681701 -3.717809 17.628223 14.011613 4.535377 15.200325 1.290790 2.647889 -1.528754 1.528756 -0.579454 1.575010 2.538720 1.998920 -1.154093 1.154075 0.000000 -0.000003 0.000002 9.109297 -0.518019 2.259902 0.079634 1.046441 -8.705423 0.009325 0.358799 -2.974501 0.009290 0.358807 -2.974484 0.000003 0.000000 0.000001 9.533396 0.000006 0.000002 0.133842 1.353818 -11.293162 0.106546 1.209103 -10.072195 0.098147 1.160850 -9.666243 -0.000002 0.000000 -0.000001 9.104500 -0.042998 -1.865098 0.201385 1.656418 -13.864189 0.338893 2.137633 -18.016649 0.337392 2.133042 -17.976503 -0.000003 0.000000 0.000002 8.077792 -0.486883 -3.806301 1.422718 5.853800 -16.056081 0.618991 -1.216093 -24.770060 0.612366 2.843503 -24.303492 0.000001 0.000001 -0.000002 -8.207799 -6.751696 -1.599542 -20.710605 4.431073 -5.283143 44.887522 -10.316893 -9.985853 -17.966078 -5.766669 -1.881593 -6.209284 -0.000002 0.000004 0.000000 0.000001 0.000002 8.207802 -6.751697 -1.599543 -15.552418 4.798436 -9.078426 35.033799 6.851938 1.438349 -17.708102 0.127039 -0.815250 -0.375467 -0.000000 0.000001 -0.000000 -0.000001 0.000000 
0.681538 98.040070 2.459406 -1.588652 1.840038 7.410464 -0.000000 10.181551 0.131524 -1.380373 -0.996876 -0.452911 6.180773 -0.341801 -3.491930 6.173119 -0.336493 -3.505034 0.000000 16.740358 -2.049019 -0.473354 2.599779 -1.215865 -0.000002 9.617838 1.684983 -23.242995 17.797803 -12.301254 -0.000008 22.037384 7.501076 0.000002 -0.000002 0.000001 -4.570001 11.014867 -2.160840 0.883032 9.494065 7.015321 0.718856 21.201501 71.075297 0.000005 6.942584 0.000007 24.995781 2.890142 -3.871409 -2.464795 -1.573979 2.681910 -4.077523 -16.174545 -15.131707 5.287492 -15.850487 -0.724040 -2.646273 -1.527806 1.527818 -1.273758 0.137304 -2.094874 -1.994586 -1.151584 1.151578 0.000002 -0.000004 -0.000002 -9.108306 -0.517881 2.259804 0.018475 0.507731 -4.169972 0.075146 -1.021482 8.413080 0.100816 -1.182169 9.748705 -0.000000 -0.000000 0.000000 -9.532499 0.000015 -0.000002 0.015677 -0.467667 3.840568 0.135766 -1.370116 11.318214 0.181584 -1.581767 13.096416 -0.000000 -0.000000 0.000003 -9.103596 -0.043109 -1.865100 0.178321 -1.567667 12.977654 0.249276 -1.848640 15.357790 0.303988 -2.037314 16.971606 -0.000001 0.000000 -0.000001 -8.076689 -0.486729 -3.806300 0.465044 -2.504595 21.034158 0.342471 -2.159281 18.022581 0.421327 -2.387909 20.009816 0.000001 0.000001 -0.000003 4.570402 11.014704 -2.160816 0.625857 -5.335689 -7.538143 1.247585 -13.789384 -62.050527 -0.000003 -11.383360 0.000002 35.443026 3.733329 8.841957 2.466101 -1.576212 2.681705 -3.717817 17.628225 14.011611 4.535376 15.200320 1.290784 2.647880 -1.528756 1.528750 -0.579451 1.575006 2.538724 1.998917 -1.154094 1.154071 -0.000001 0.000003 -0.000000 9.109294 -0.518017 2.259904 0.068341 0.969782 -8.063214 0.008032 0.333132 -2.761492 0.008004 0.333128 -2.761508 -0.000000 0.000001 0.000000 9.533402 0.000006 0.000003 0.120176 1.283477 -10.698988 0.100789 1.176229 -9.795562 0.093187 1.131349 -9.418220 0.000004 0.000000 0.000000 9.104498 -0.043002 -1.865096 0.185443 1.590501 -13.301824 0.327078 2.100957 -17.696824 0.326459 2.099064 -17.680317 0.000002 -0.000000 0.000000 8.077815 -0.486881 -3.806297 1.365848 5.800247 -15.495828 0.602213 -1.252691 -24.436769 0.595877 2.806751 -23.969017 0.000001 -0.000003 0.000000 -8.207803 -6.751719 -1.599540 -20.348271 3.757664 -4.703592 44.597222 -10.315233 -9.988317 -17.564767 -5.490199 0.365429 -6.544652 0.000002 -0.000004 -0.000000 -0.000000 0.000001 8.207799 -6.751708 -1.599544 -15.707871 3.316368 -9.249361 34.859667 5.897768 1.314450 -17.419629 0.104528 -0.556722 -0.662514 0.000001 0.000001 -0.000000 0.000001 0.000000 
0.567780 97.943001 2.440349 -1.547946 3.976024 8.269391 0.000001 10.181558 0.131525 -2.015353 -0.907771 -0.544636 5.678761 -0.354849 -4.098448 5.670730 -0.342120 -4.111579 0.000000 16.740355 -2.049020 0.245419 2.279042 -1.300071 -0.000001 9.617819 1.684990 -21.711423 15.856689 -11.894085 -0.000004 22.037369 7.501073 0.000001 -0.000001 0.000000 -4.570000 11.014875 -2.160839 0.878835 9.069369 6.707125 0.782908 23.108304 73.050075 0.000007 6.470443 0.000005 16.018508 2.029696 -4.308377 -2.464796 -1.573996 2.681907 -4.077520 -16.174547 -15.131709 5.287497 -15.850487 -0.724039 -2.646264 -1.527805 1.527812 -1.273764 0.137306 -2.094866 -1.994590 -1.151579 1.151577 0.000000 0.000000 0.000003 -9.108293 -0.517879 2.259802 0.040963 0.755260 -6.209908 0.066072 -0.958229 7.888609 0.095474 -1.150671 9.486415 -0.000003 0.000000 -0.000000 -9.532495 0.000017 -0.000002 0.003659 -0.226075 1.855416 0.121769 -1.298181 10.716642 0.174874 -1.552699 12.851435 -0.000004 -0.000001 0.000001 -9.103591 -0.043109 -1.865104 0.127563 -1.328491 10.969926 0.231037 -1.781002 14.782409 0.295895 -2.010600 16.742317 -0.000001 0.000001 -0.000001 -8.076682 -0.486729 -3.806299 0.377611 -2.264397 18.933225 0.325718 -2.107127 17.572326 0.411989 -2.362136 19.784621 0.000001 0.000000 0.000004 4.570400 11.014690 -2.160815 0.615786 -4.967422 -7.677543 0.101459 -13.048480 -61.509084 0.000006 -9.476537 0.000009 37.353908 2.409922 9.581920 2.466098 -1.576214 2.681702 -3.717818 17.628216 14.011606 4.535372 15.200323 1.290783 2.647881 -1.528756 1.528742 -0.579450 1.575012 2.538724 1.998917 -1.154097 1.154071 -0.000001 0.000003 -0.000000 9.109310 -0.518017 2.259904 0.059256 0.903230 -7.506526 0.006550 0.300889 -2.493998 0.006538 0.300867 -2.493990 -0.000001 -0.000001 0.000001 9.533409 0.000005 0.000002 0.107557 1.214739 -10.119685 0.094685 1.140359 -9.493849 0.087820 1.098514 -9.142463 -0.000000 0.000002 -0.000000 9.104507 -0.042995 -1.865096 0.168325 1.516237 -12.669819 0.315566 2.064564 -17.380173 0.316009 2.066004 -17.392788 0.000005 -0.000001 0.000002 8.077814 -0.486886 -3.806298 1.295163 5.732232 -14.792387 0.587411 -1.285532 -24.138525 0.581320 2.773785 -23.669751 0.000002 0.000002 -0.000002 -8.207799 -6.751718 -1.599544 -20.206553 3.441571 -5.108853 44.698445 -10.089616 -9.978984 -17.674248 -4.078122 4.233655 -6.949991 0.000002 0.000004 0.000000 0.000000 -0.000000 8.207799 -6.751699 -1.599546 -16.136918 1.853542 -10.443340 34.801511 5.777792 1.239953 -17.150748 0.136950 -0.532677 -1.006929 -0.000005 0.000001 -0.000000 0.000001 0.000000 
